<svg viewBox="0 0 147 18" xmlns="http://www.w3.org/2000/svg" xml:space="preserve" style="fill-rule:evenodd;clip-rule:evenodd;stroke-linejoin:round;stroke-miterlimit:2"><path d="M0 6.982C0 3.133 3.284 0 7.189 0c2.161 0 3.699.834 4.857 1.924L10.68 3.27c-.829-.767-1.952-1.363-3.491-1.363a5.045 5.045 0 0 0-5.081 5.075c0 2.81 2.23 5.075 5.081 5.075 1.849 0 2.904-.732 3.578-1.397.553-.545.916-1.328 1.054-2.401H7.189V6.352h6.516c.069.34.103.749.103 1.192 0 1.43-.397 3.202-1.676 4.462-1.244 1.277-2.834 1.958-4.943 1.958C3.284 13.964 0 10.831 0 6.982ZM19.074 12.193c-1.383 0-2.575-1.124-2.575-2.725 0-1.618 1.192-2.724 2.575-2.724 1.382 0 2.575 1.106 2.575 2.724 0 1.601-1.193 2.725-2.575 2.725Zm0-7.22c-2.523 0-4.58 1.89-4.58 4.495 0 2.589 2.057 4.496 4.58 4.496s4.58-1.907 4.58-4.496c0-2.605-2.057-4.495-4.58-4.495ZM29.065 12.193c-1.383 0-2.576-1.124-2.576-2.725 0-1.618 1.193-2.724 2.575-2.724 1.383 0 2.575 1.106 2.575 2.724 0 1.601-1.192 2.725-2.575 2.725Zm0-7.22c-2.523 0-4.579 1.89-4.579 4.495 0 2.589 2.056 4.496 4.579 4.496 2.524 0 4.58-1.907 4.58-4.496 0-2.605-2.056-4.495-4.579-4.495ZM39.029 12.193c-1.383 0-2.541-1.141-2.541-2.708 0-1.583 1.158-2.741 2.541-2.741 1.365 0 2.437 1.158 2.437 2.741 0 1.567-1.072 2.708-2.437 2.708Zm2.298-6.948v.732h-.069c-.449-.528-1.313-1.004-2.402-1.004-2.281 0-4.372 1.975-4.372 4.512 0 2.521 2.091 4.479 4.372 4.479 1.089 0 1.953-.477 2.402-1.022h.069v.648c0 1.719-.933 2.639-2.436 2.639-1.227 0-1.988-.869-2.299-1.601l-1.745.715C35.348 16.535 36.679 18 38.891 18c2.35 0 4.337-1.362 4.337-4.683V5.245h-1.901ZM44.611.477h2.005v13.215h-2.005zM51.956 6.71c.795 0 1.469.391 1.694.953l-4.079 1.669c-.052-1.737 1.365-2.622 2.385-2.622Zm.155 5.483c-1.019 0-1.745-.46-2.212-1.362L56 8.344l-.207-.511c-.381-1.004-1.538-2.861-3.906-2.861-2.351 0-4.303 1.823-4.303 4.496 0 2.521 1.935 4.496 4.527 4.496 2.092 0 3.301-1.26 3.802-1.992l-1.555-1.022c-.518.749-1.227 1.243-2.247 1.243Z" style="fill:#fff"/><path d="M72.524 1.144v1.584h-5.868v4.086h5.292v1.548h-5.292v4.086h5.868v1.584H65V1.144h7.524Zm2.886 10.188c0 .432.18.792.54 1.08.372.288.804.432 1.296.432.696 0 1.314-.258 1.854-.774.552-.516.828-1.122.828-1.818-.516-.408-1.236-.612-2.16-.612-.672 0-1.236.162-1.692.486-.444.324-.666.726-.666 1.206Zm2.142-6.408c1.224 0 2.19.33 2.898.99.708.648 1.062 1.542 1.062 2.682v5.436h-1.584v-1.224h-.072c-.684 1.008-1.596 1.512-2.736 1.512-.972 0-1.788-.288-2.448-.864-.648-.576-.972-1.296-.972-2.16 0-.912.342-1.638 1.026-2.178.696-.54 1.62-.81 2.772-.81.984 0 1.794.18 2.43.54V8.47c0-.576-.228-1.062-.684-1.458a2.326 2.326 0 0 0-1.602-.612c-.924 0-1.656.39-2.196 1.17l-1.458-.918c.804-1.152 1.992-1.728 3.564-1.728Zm16.16 9.252c-.72 0-1.32-.222-1.8-.666-.468-.444-.708-1.062-.72-1.854V6.724h-1.548V5.212h1.548v-2.7h1.656v2.7h2.16v1.512h-2.16v4.392c0 .588.114.99.342 1.206.228.204.486.306.774.306.132 0 .258-.012.378-.036.132-.036.252-.078.36-.126l.522 1.476c-.432.156-.936.234-1.512.234ZM83.38 5.212h1.584v1.44h.072c.492-1.128 1.506-1.692 3.042-1.692l.342.036v1.728l-.738-.072c-.768 0-1.404.24-1.908.72-.492.468-.738 1.068-.738 1.8v4.86H83.38v-8.82Zm13.307-4.068h1.656v4.068l-.072 1.224h.072c.252-.432.636-.792 1.152-1.08a3.378 3.378 0 0 1 1.638-.432c1.08 0 1.908.312 2.484.936.588.612.882 1.488.882 2.628v5.544h-1.656v-5.22c0-1.584-.702-2.376-2.106-2.376-.672 0-1.242.282-1.71.846-.456.552-.684 1.2-.684 1.944v4.806h-1.656V1.144Zm18.462 12.888h-1.728l-4.536-12.888h1.836l3.528 10.458h.072l3.672-10.458h1.836l-4.68 12.888ZM122.84 2.17c0 .324-.114.6-.342.828a1.128 1.128 0 0 1-.828.342c-.324 0-.6-.114-.828-.342a1.128 1.128 0 0 1-.342-.828c0-.324.114-.6.342-.828.228-.228.504-.342.828-.342.324 0 .6.114.828.342.228.228.342.504.342.828Zm-.342 3.042v8.82h-1.656v-8.82h1.656Zm6.027 9.108c-1.296 0-2.364-.444-3.204-1.332-.84-.888-1.26-2.01-1.26-3.366 0-1.344.408-2.46 1.224-3.348.816-.9 1.86-1.35 3.132-1.35 1.308 0 2.346.426 3.114 1.278.78.84 1.17 2.022 1.17 3.546l-.018.18h-6.93c.024.864.312 1.56.864 2.088a2.764 2.764 0 0 0 1.98.792c1.056 0 1.884-.528 2.484-1.584l1.476.72a4.38 4.38 0 0 1-1.656 1.746c-.696.42-1.488.63-2.376.63Zm-2.646-5.76h5.058a2.15 2.15 0 0 0-.756-1.512c-.444-.408-1.044-.612-1.8-.612-.624 0-1.164.192-1.62.576-.444.384-.738.9-.882 1.548Zm20.653-3.348-2.844 8.82h-1.692L139.8 7.264l-2.178 6.768h-1.674l-2.844-8.82h1.728l1.962 6.66h.018l2.178-6.66h1.71l2.178 6.66h.018l1.944-6.66h1.692Z" style="fill:#fff;fill-rule:nonzero"/></svg>