<svg width="276" height="220" viewBox="0 0 276 220" fill="none" xmlns="http://www.w3.org/2000/svg">
<rect width="276" height="220" fill="none"/>
<path d="M59.49 101.82V107.82" stroke="#D9D9D9" stroke-width="2" stroke-linecap="round" stroke-linejoin="round"/>
<path d="M56.49 104.82H62.49" stroke="#D9D9D9" stroke-width="2" stroke-linecap="round" stroke-linejoin="round"/>
<path d="M73.49 97.8199C75.1469 97.8199 76.49 96.4768 76.49 94.8199C76.49 93.1631 75.1469 91.8199 73.49 91.8199C71.8331 91.8199 70.49 93.1631 70.49 94.8199C70.49 96.4768 71.8331 97.8199 73.49 97.8199Z" stroke="#D9D9D9" stroke-width="2" stroke-linecap="round" stroke-linejoin="round"/>
<path d="M74.49 108.82C75.0423 108.82 75.49 108.372 75.49 107.82C75.49 107.268 75.0423 106.82 74.49 106.82C73.9377 106.82 73.49 107.268 73.49 107.82C73.49 108.372 73.9377 108.82 74.49 108.82Z" stroke="#D9D9D9" stroke-width="2" stroke-linecap="round" stroke-linejoin="round"/>
<path d="M107.07 183.75H101.21C99.0328 183.754 96.9079 183.083 95.1277 181.829C93.3476 180.576 91.9999 178.801 91.27 176.75L83.34 154.31C82.2891 151.318 81.7515 148.171 81.75 145V130.8C81.75 129.209 82.3821 127.683 83.5074 126.557C84.6326 125.432 86.1587 124.8 87.75 124.8H99.75C102.933 124.8 105.985 126.064 108.235 128.315C110.486 130.565 111.75 133.617 111.75 136.8V179.12C111.734 180.352 111.235 181.528 110.359 182.394C109.483 183.26 108.302 183.747 107.07 183.75Z" fill="#D9D9D9" stroke="#333333" stroke-width="2" stroke-linecap="round" stroke-linejoin="round"/>
<path d="M107.62 183.75C105.318 183.749 103.073 183.033 101.194 181.703C99.3152 180.372 97.8953 178.491 97.13 176.32L89.34 154.32C88.288 151.325 87.7504 148.174 87.75 145V130.8C87.75 129.209 88.3821 127.683 89.5074 126.557C90.6326 125.432 92.1587 124.8 93.75 124.8H104.75C108.463 124.8 112.024 126.275 114.649 128.9C117.275 131.526 118.75 135.087 118.75 138.8V172.67C118.737 175.613 117.558 178.431 115.472 180.508C113.387 182.584 110.563 183.75 107.62 183.75Z" fill="white" stroke="#333333" stroke-width="2" stroke-linecap="round" stroke-linejoin="round"/>
<path d="M108.22 183.15C106.22 182.94 103.7 180.77 102.13 176.32L94.34 154.32C93.288 151.325 92.7504 148.174 92.75 145V131.48C92.7221 130.722 92.8506 129.966 93.1275 129.259C93.4043 128.553 93.8235 127.911 94.3591 127.373C94.8947 126.836 95.5352 126.415 96.2407 126.135C96.9462 125.856 97.7016 125.725 98.46 125.75H104.46C112.19 125.75 118.75 131.02 118.75 138.75V172.62C118.75 178.77 108.22 183.15 108.22 183.15Z" fill="#D9D9D9"/>
<path d="M104.75 142.75C107.511 142.75 109.75 140.511 109.75 137.75C109.75 134.989 107.511 132.75 104.75 132.75C101.989 132.75 99.75 134.989 99.75 137.75C99.75 140.511 101.989 142.75 104.75 142.75Z" stroke="#333333" stroke-width="2" stroke-linecap="round" stroke-linejoin="round"/>
<path d="M166.49 120.43L157.15 129.76C156.592 130.317 156.15 130.979 155.848 131.707C155.546 132.436 155.39 133.216 155.39 134.005C155.39 134.793 155.546 135.574 155.848 136.303C156.15 137.031 156.592 137.693 157.15 138.25L165.64 146.73C166.755 147.849 168.08 148.736 169.538 149.342C170.997 149.948 172.561 150.259 174.14 150.259C175.719 150.259 177.283 149.948 178.742 149.342C180.2 148.736 181.525 147.849 182.64 146.73L207.71 121.66C208.689 120.681 209.466 119.519 209.996 118.24C210.526 116.961 210.799 115.59 210.799 114.205C210.799 112.82 210.526 111.449 209.996 110.17C209.466 108.891 208.689 107.729 207.71 106.75C206.163 105.216 204.177 104.2 202.028 103.842C199.879 103.483 197.671 103.801 195.71 104.75L175.6 114.36" fill="white"/>
<path d="M166.49 120.43L157.15 129.76C156.592 130.317 156.15 130.979 155.848 131.707C155.546 132.436 155.39 133.216 155.39 134.005C155.39 134.793 155.546 135.574 155.848 136.303C156.15 137.031 156.592 137.693 157.15 138.25L165.64 146.73C166.755 147.849 168.08 148.736 169.538 149.342C170.997 149.948 172.561 150.259 174.14 150.259C175.719 150.259 177.283 149.948 178.742 149.342C180.2 148.736 181.525 147.849 182.64 146.73L207.71 121.66C208.689 120.681 209.466 119.519 209.996 118.24C210.526 116.961 210.799 115.59 210.799 114.205C210.799 112.82 210.526 111.449 209.996 110.17C209.466 108.891 208.689 107.729 207.71 106.75V106.75C206.163 105.216 204.177 104.2 202.028 103.842C199.879 103.483 197.671 103.801 195.71 104.75L175.6 114.36" stroke="#333333" stroke-width="2" stroke-linecap="round" stroke-linejoin="round"/>
<path d="M166.49 120.43L157.15 129.76C156.592 130.317 156.15 130.979 155.848 131.707C155.546 132.436 155.39 133.216 155.39 134.005C155.39 134.793 155.546 135.574 155.848 136.303C156.15 137.031 156.592 137.693 157.15 138.25L165.64 146.73C166.755 147.849 168.08 148.736 169.538 149.342C170.997 149.948 172.561 150.259 174.14 150.259C175.719 150.259 177.283 149.948 178.742 149.342C180.2 148.736 181.525 147.849 182.64 146.73L207.71 121.66C208.689 120.681 209.466 119.519 209.996 118.24C210.526 116.961 210.799 115.59 210.799 114.205C210.799 112.82 210.526 111.449 209.996 110.17C209.466 108.891 208.689 107.729 207.71 106.75C206.163 105.216 204.177 104.2 202.028 103.842C199.879 103.483 197.671 103.801 195.71 104.75L175.6 114.36" fill="white"/>
<path d="M166.49 120.43L157.15 129.76C156.592 130.317 156.15 130.979 155.848 131.707C155.546 132.436 155.39 133.216 155.39 134.005C155.39 134.793 155.546 135.574 155.848 136.303C156.15 137.031 156.592 137.693 157.15 138.25L165.64 146.73C166.755 147.849 168.08 148.736 169.538 149.342C170.997 149.948 172.561 150.259 174.14 150.259C175.719 150.259 177.283 149.948 178.742 149.342C180.2 148.736 181.525 147.849 182.64 146.73L207.71 121.66C208.689 120.681 209.466 119.519 209.996 118.24C210.526 116.961 210.799 115.59 210.799 114.205C210.799 112.82 210.526 111.449 209.996 110.17C209.466 108.891 208.689 107.729 207.71 106.75V106.75C206.163 105.216 204.177 104.2 202.028 103.842C199.879 103.483 197.671 103.801 195.71 104.75L175.6 114.36" stroke="#333333" stroke-width="2" stroke-linecap="round" stroke-linejoin="round"/>
<path d="M188.36 139.57C188.184 134.65 186.104 129.99 182.56 126.572C179.016 123.155 174.283 121.247 169.36 121.25H167.04L157.82 130.47C156.883 131.408 156.356 132.679 156.356 134.005C156.356 135.331 156.883 136.602 157.82 137.54L166.31 146.03C168.373 148.091 171.169 149.249 174.085 149.249C177.001 149.249 179.797 148.091 181.86 146.03L188.36 139.57Z" fill="#D9D9D9"/>
<path d="M207.68 106.75L207.51 106.58H207.44L207.68 106.75Z" fill="#9E9E9E" stroke="#333333" stroke-width="2" stroke-linecap="round" stroke-linejoin="round"/>
<path d="M207.68 106.75L207.51 106.58H207.44L207.68 106.75Z" fill="#757575"/>
<path d="M211.68 110.75L207.68 106.75C208.659 107.729 209.436 108.891 209.966 110.17C210.496 111.449 210.769 112.82 210.769 114.205C210.769 115.59 210.496 116.961 209.966 118.24C209.436 119.519 208.659 120.681 207.68 121.66L182.61 146.73C181.495 147.849 180.17 148.736 178.712 149.342C177.253 149.948 175.689 150.259 174.11 150.259C172.531 150.259 170.967 149.948 169.508 149.342C168.05 148.736 166.725 147.849 165.61 146.73L169.61 150.73C170.725 151.849 172.05 152.736 173.508 153.342C174.967 153.948 176.531 154.259 178.11 154.259C179.689 154.259 181.253 153.948 182.712 153.342C184.17 152.736 185.495 151.849 186.61 150.73L211.68 125.66C212.659 124.681 213.436 123.519 213.966 122.24C214.496 120.961 214.769 119.59 214.769 118.205C214.769 116.82 214.496 115.449 213.966 114.17C213.436 112.891 212.659 111.729 211.68 110.75Z" fill="#9E9E9E" stroke="#333333" stroke-width="2" stroke-linecap="round" stroke-linejoin="round"/>
<path d="M180.49 112.08L187.1 118.69C187.848 119.437 188.862 119.858 189.92 119.86H192.27C193.327 119.851 194.344 120.261 195.1 121L198.17 124.08" stroke="#333333" stroke-width="2" stroke-linecap="round" stroke-linejoin="round"/>
<path d="M188.86 141.9L183.32 147.44C180.883 149.878 177.577 151.249 174.13 151.25C173.22 151.248 172.312 151.155 171.42 150.97C173.54 152.593 176.178 153.39 178.843 153.212C181.507 153.033 184.015 151.892 185.9 150L191.44 144.46L188.86 141.9Z" fill="#757575"/>
<path d="M217.4 111.25H220.4" stroke="#D9D9D9" stroke-width="2" stroke-linecap="round" stroke-linejoin="round"/>
<path d="M207.4 101.25V98.25" stroke="#D9D9D9" stroke-width="2" stroke-linecap="round" stroke-linejoin="round"/>
<path d="M214.47 104.18L216.59 102.05" stroke="#D9D9D9" stroke-width="2" stroke-linecap="round" stroke-linejoin="round"/>
<path d="M169.91 158.29H103.66C101.851 158.29 100.117 157.571 98.8375 156.292C97.5585 155.013 96.84 153.279 96.84 151.47V127.47C96.8426 124.244 98.124 121.15 100.403 118.867C102.683 116.584 105.774 115.298 109 115.29H164.51C167.744 115.29 170.846 116.574 173.133 118.86C175.421 121.146 176.707 124.246 176.71 127.48V151.48C176.707 153.284 175.99 155.013 174.716 156.289C173.442 157.565 171.714 158.285 169.91 158.29Z" fill="white" stroke="#333333" stroke-width="2" stroke-linecap="round" stroke-linejoin="round"/>
<path d="M167.4 158.29H106.56C105.455 158.29 104.56 159.185 104.56 160.29V164.29C104.56 165.395 105.455 166.29 106.56 166.29H167.4C168.505 166.29 169.4 165.395 169.4 164.29V160.29C169.4 159.185 168.505 158.29 167.4 158.29Z" fill="#D9D9D9" stroke="#333333" stroke-width="2" stroke-linecap="round" stroke-linejoin="round"/>
<path fill-rule="evenodd" clip-rule="evenodd" d="M151 135.73L140.77 125.48C140.247 124.962 139.541 124.671 138.805 124.671C138.069 124.671 137.363 124.962 136.84 125.48L126.6 135.73C126.082 136.253 125.791 136.959 125.791 137.695C125.791 138.431 126.082 139.137 126.6 139.66L133.43 146.51C133.874 146.954 134.4 147.307 134.98 147.547C135.56 147.787 136.182 147.911 136.81 147.91H140.76C141.388 147.911 142.01 147.787 142.59 147.547C143.17 147.307 143.696 146.954 144.14 146.51L150.98 139.66C151.501 139.14 151.796 138.435 151.799 137.699C151.803 136.963 151.516 136.255 151 135.73ZM133.59 138.67C133.325 138.935 132.965 139.084 132.59 139.084C132.215 139.084 131.855 138.935 131.59 138.67C131.325 138.405 131.176 138.045 131.176 137.67C131.176 137.295 131.325 136.935 131.59 136.67L137.7 130.56C137.828 130.423 137.983 130.314 138.155 130.239C138.327 130.165 138.513 130.126 138.7 130.126C138.887 130.126 139.073 130.165 139.245 130.239C139.417 130.314 139.572 130.423 139.7 130.56C139.834 130.69 139.941 130.845 140.014 131.017C140.087 131.189 140.125 131.373 140.125 131.56C140.125 131.747 140.087 131.931 140.014 132.103C139.941 132.275 139.834 132.43 139.7 132.56L133.59 138.67ZM139.76 144.85C139.564 145.039 139.316 145.167 139.048 145.217C138.779 145.266 138.502 145.236 138.251 145.129C138 145.023 137.786 144.845 137.635 144.617C137.485 144.39 137.405 144.123 137.405 143.85C137.405 143.577 137.485 143.31 137.635 143.083C137.786 142.855 138 142.677 138.251 142.57C138.502 142.464 138.779 142.434 139.048 142.483C139.316 142.533 139.564 142.66 139.76 142.85C139.893 142.981 139.998 143.137 140.069 143.31C140.141 143.482 140.176 143.668 140.175 143.854C140.173 144.041 140.133 144.225 140.059 144.396C139.984 144.567 139.876 144.722 139.74 144.85H139.76ZM139.76 138.65L136.65 141.76C136.519 141.891 136.363 141.995 136.191 142.067C136.02 142.138 135.836 142.174 135.65 142.174C135.464 142.174 135.28 142.138 135.109 142.067C134.937 141.995 134.781 141.891 134.65 141.76C134.519 141.629 134.415 141.473 134.343 141.301C134.272 141.13 134.236 140.946 134.236 140.76C134.236 140.574 134.272 140.39 134.343 140.219C134.415 140.047 134.519 139.891 134.65 139.76L137.75 136.65C138.015 136.385 138.375 136.236 138.75 136.236C139.125 136.236 139.485 136.385 139.75 136.65C140.015 136.915 140.164 137.275 140.164 137.65C140.164 138.025 140.015 138.385 139.75 138.65H139.76Z" fill="#333333"/>
<path d="M114.79 127.29C115.895 127.29 116.79 126.395 116.79 125.29C116.79 124.185 115.895 123.29 114.79 123.29C113.685 123.29 112.79 124.185 112.79 125.29C112.79 126.395 113.685 127.29 114.79 127.29Z" fill="#A6E2B4"/>
<path d="M120.79 127.29C121.895 127.29 122.79 126.395 122.79 125.29C122.79 124.185 121.895 123.29 120.79 123.29C119.685 123.29 118.79 124.185 118.79 125.29C118.79 126.395 119.685 127.29 120.79 127.29Z" fill="#333333"/>
<path d="M149.29 49.29H126.29C109.998 49.29 96.79 62.4976 96.79 78.79C96.79 95.0824 109.998 108.29 126.29 108.29H149.29C165.582 108.29 178.79 95.0824 178.79 78.79C178.79 62.4976 165.582 49.29 149.29 49.29Z" fill="white" stroke="#333333" stroke-width="2" stroke-linecap="round" stroke-linejoin="round"/>
<path d="M155.29 104.29H132.29C126.165 104.279 120.206 102.295 115.298 98.6309C110.39 94.967 106.793 89.8188 105.041 83.9497C103.288 78.0806 103.475 71.803 105.571 66.048C107.668 60.2929 111.563 55.3668 116.68 52C110.361 54.264 105.043 58.6859 101.665 64.4863C98.2868 70.2867 97.0643 77.0935 98.2129 83.707C99.3616 90.3205 102.808 96.3164 107.944 100.638C113.081 104.96 119.577 107.329 126.29 107.33H149.29C154.835 107.337 160.261 105.713 164.89 102.66C161.808 103.754 158.56 104.306 155.29 104.29Z" fill="#D9D9D9"/>
<path d="M156.29 60.29H121.29C116.043 60.29 111.79 64.5433 111.79 69.79C111.79 75.0367 116.043 79.29 121.29 79.29H156.29C161.537 79.29 165.79 75.0367 165.79 69.79C165.79 64.5433 161.537 60.29 156.29 60.29Z" fill="#DFF5E3" stroke="#333333" stroke-width="2" stroke-linecap="round" stroke-linejoin="round"/>
<path d="M155.79 68.29C155.79 66.0808 153.999 64.29 151.79 64.29C149.581 64.29 147.79 66.0808 147.79 68.29V72.29C147.79 74.4991 149.581 76.29 151.79 76.29C153.999 76.29 155.79 74.4991 155.79 72.29V68.29Z" fill="#333333"/>
<path d="M129.79 68.29C129.79 66.0808 127.999 64.29 125.79 64.29C123.581 64.29 121.79 66.0808 121.79 68.29V72.29C121.79 74.4991 123.581 76.29 125.79 76.29C127.999 76.29 129.79 74.4991 129.79 72.29V68.29Z" fill="#333333"/>
<path d="M150.63 83.29C150.924 83.2857 151.215 83.3463 151.483 83.4673C151.751 83.5884 151.989 83.7669 152.179 83.9904C152.37 84.2138 152.51 84.4765 152.588 84.7599C152.666 85.0433 152.68 85.3404 152.63 85.63C152.078 89.1638 150.281 92.3839 147.563 94.7095C144.846 97.0351 141.387 98.3132 137.81 98.3132C134.233 98.3132 130.774 97.0351 128.057 94.7095C125.339 92.3839 123.542 89.1638 122.99 85.63C122.94 85.3404 122.954 85.0433 123.032 84.7599C123.11 84.4765 123.25 84.2138 123.441 83.9904C123.631 83.7669 123.869 83.5884 124.137 83.4673C124.405 83.3463 124.696 83.2857 124.99 83.29H150.63Z" fill="#333333"/>
<path d="M140.24 95C140.097 93.698 139.591 92.4623 138.78 91.4335C137.969 90.4047 136.886 89.624 135.654 89.1802C134.421 88.7364 133.089 88.6474 131.809 88.9231C130.528 89.1988 129.351 89.8283 128.41 90.74C129.534 92.1495 130.96 93.2878 132.584 94.0704C134.208 94.8529 135.987 95.2595 137.79 95.26C138.613 95.2553 139.434 95.1682 140.24 95Z" fill="white"/>
<path d="M180.79 87.79H181.79C182.586 87.79 183.349 87.4739 183.911 86.9113C184.474 86.3487 184.79 85.5856 184.79 84.79V72.79C184.79 71.9943 184.474 71.2313 183.911 70.6687C183.349 70.106 182.586 69.79 181.79 69.79H180.79" stroke="#333333" stroke-width="2" stroke-linecap="round" stroke-linejoin="round"/>
<path d="M184.79 78.79H187.79" stroke="#333333" stroke-width="2" stroke-linecap="round" stroke-linejoin="round"/>
<path d="M190.79 81.79C192.447 81.79 193.79 80.4468 193.79 78.79C193.79 77.1331 192.447 75.79 190.79 75.79C189.133 75.79 187.79 77.1331 187.79 78.79C187.79 80.4468 189.133 81.79 190.79 81.79Z" fill="white" stroke="#333333" stroke-width="2" stroke-linecap="round" stroke-linejoin="round"/>
<path d="M95 87.79H94C93.2044 87.79 92.4413 87.4739 91.8787 86.9113C91.3161 86.3487 91 85.5856 91 84.79V72.79C91 71.9943 91.3161 71.2313 91.8787 70.6687C92.4413 70.106 93.2044 69.79 94 69.79H95" stroke="#333333" stroke-width="2" stroke-linecap="round" stroke-linejoin="round"/>
<path d="M90.99 78.79H87.99" stroke="#333333" stroke-width="2" stroke-linecap="round" stroke-linejoin="round"/>
<path d="M84.99 81.79C86.6469 81.79 87.99 80.4468 87.99 78.79C87.99 77.1331 86.6469 75.79 84.99 75.79C83.3331 75.79 81.99 77.1331 81.99 78.79C81.99 80.4468 83.3331 81.79 84.99 81.79Z" fill="white" stroke="#333333" stroke-width="2" stroke-linecap="round" stroke-linejoin="round"/>
<path d="M127.21 166.4H113.69C108.935 166.4 105.08 170.255 105.08 175.01V189.68C105.08 194.435 108.935 198.29 113.69 198.29H127.21C131.965 198.29 135.82 194.435 135.82 189.68V175.01C135.82 170.255 131.965 166.4 127.21 166.4Z" fill="#9E9E9E" stroke="#333333" stroke-width="2" stroke-linecap="round" stroke-linejoin="round"/>
<path d="M132.21 183.3H108.47" stroke="#333333" stroke-width="2" stroke-linecap="round" stroke-linejoin="round"/>
<path d="M129.67 175.3H111" stroke="#333333" stroke-width="2" stroke-linecap="round" stroke-linejoin="round"/>
<path d="M129.67 191.3H111" stroke="#333333" stroke-width="2" stroke-linecap="round" stroke-linejoin="round"/>
<path d="M160.97 166.4H147.45C142.695 166.4 138.84 170.255 138.84 175.01V189.68C138.84 194.435 142.695 198.29 147.45 198.29H160.97C165.725 198.29 169.58 194.435 169.58 189.68V175.01C169.58 170.255 165.725 166.4 160.97 166.4Z" fill="#9E9E9E" stroke="#333333" stroke-width="2" stroke-linecap="round" stroke-linejoin="round"/>
<path d="M165.96 183.3H142.23" stroke="#333333" stroke-width="2" stroke-linecap="round" stroke-linejoin="round"/>
<path d="M163.43 175.3H144.76" stroke="#333333" stroke-width="2" stroke-linecap="round" stroke-linejoin="round"/>
<path d="M163.43 191.3H144.76" stroke="#333333" stroke-width="2" stroke-linecap="round" stroke-linejoin="round"/>
<path d="M201.48 198.24H83.48" stroke="#333333" stroke-width="2" stroke-linecap="round" stroke-linejoin="round"/>
<path d="M79.48 198.24H77.48" stroke="#333333" stroke-width="2" stroke-linecap="round" stroke-linejoin="round"/>
<path d="M205.48 198.24H209.48" stroke="#333333" stroke-width="2" stroke-linecap="round" stroke-linejoin="round"/>
<path d="M55 157.81C55.25 153.33 55.67 148.81 56.31 144.36C56.9124 139.814 57.8482 135.319 59.11 130.91C59.1692 130.745 59.2778 130.603 59.4209 130.502C59.5641 130.401 59.7349 130.347 59.91 130.347C60.0851 130.347 60.2559 130.401 60.3991 130.502C60.5422 130.603 60.6508 130.745 60.71 130.91C61.9686 135.319 62.9011 139.814 63.5 144.36C64.14 148.85 64.56 153.36 64.82 157.81" stroke="#D9D9D9" stroke-width="2" stroke-linecap="round" stroke-linejoin="round"/>
<path d="M60 180.34L60.06 179.9C60.59 175.97 61.4 172.08 62.25 168.19C63.1 164.3 64.18 160.19 65.4 156.19C66.5931 152.156 68.0564 148.207 69.78 144.37C69.8582 144.207 69.9967 144.08 70.1664 144.016C70.3361 143.953 70.5238 143.958 70.69 144.03C70.8015 144.075 70.8991 144.148 70.9729 144.243C71.0466 144.338 71.094 144.451 71.11 144.57C71.4838 148.732 71.574 152.915 71.38 157.09C71.22 161.23 70.88 165.34 70.38 169.43C70 173 69.56 176.5 68.9 180" stroke="#D9D9D9" stroke-width="2" stroke-linecap="round" stroke-linejoin="round"/>
<path d="M50.8 180.11C50.66 179.61 50.53 179.11 50.41 178.6C49.58 174.6 49.04 170.49 48.55 166.4C48.06 162.31 47.74 158.2 47.55 154.06C47.3525 149.886 47.4394 145.703 47.81 141.54C47.8349 141.362 47.9283 141.201 48.0702 141.091C48.2121 140.98 48.3914 140.93 48.57 140.95C48.6921 140.959 48.8097 141 48.9113 141.069C49.0129 141.137 49.0952 141.23 49.15 141.34C50.8693 145.179 52.3325 149.128 53.53 153.16C54.74 157.16 55.78 161.16 56.68 165.16C57.58 169.16 58.39 173.23 58.93 177.31C59.03 178.23 59.08 179.17 59.1 180.11" stroke="#D9D9D9" stroke-width="2" stroke-linecap="round" stroke-linejoin="round"/>
<path d="M45.5 198.34H71.5" stroke="#D9D9D9" stroke-width="2" stroke-linecap="round" stroke-linejoin="round"/>
<path d="M66.49 168.02L64.51 179.76" stroke="#D9D9D9" stroke-width="2" stroke-linecap="round" stroke-linejoin="round"/>
<path d="M52.49 164.95L55.05 180.11" stroke="#D9D9D9" stroke-width="2" stroke-linecap="round" stroke-linejoin="round"/>
<path d="M59.9 149.1V179.72" stroke="#D9D9D9" stroke-width="2" stroke-linecap="round" stroke-linejoin="round"/>
<path d="M49.5 180.34H69.5C70.0304 180.34 70.5391 180.551 70.9142 180.926C71.2893 181.301 71.5 181.81 71.5 182.34V190.34C71.5 192.462 70.6571 194.497 69.1569 195.997C67.6566 197.497 65.6217 198.34 63.5 198.34H55.5C53.3783 198.34 51.3434 197.497 49.8431 195.997C48.3429 194.497 47.5 192.462 47.5 190.34V182.34C47.5 181.81 47.7107 181.301 48.0858 180.926C48.4609 180.551 48.9696 180.34 49.5 180.34Z" stroke="#D9D9D9" stroke-width="2" stroke-linecap="round" stroke-linejoin="round"/>
<path d="M47.5 184.34H63.5" stroke="#D9D9D9" stroke-width="2" stroke-linecap="round" stroke-linejoin="round"/>
</svg>
